# xmcd
#
# Track frame offsets:
#	150
#	15804
#	38957
#	55786
#	67992
#
# Disc length: 1165 seconds
#
# Revision: 1
# Processed by: cddbd v1.5.1PL0 Copyright (c) Steve Scherf et al.
# Submitted via: audiograbber 1.83.01
#
DISCID=31048b05
DTITLE=Don Francisco - That I May Know You
DYEAR=1900
DGENRE=Christian Rock
TTITLE0=Born To Die
TTITLE1=That I May Know You
TTITLE2=Sneakin'
TTITLE3=Grace And Faith
TTITLE4=Pushin' On
EXTD=
EXTT0=
EXTT1=
EXTT2=
EXTT3=
EXTT4=
PLAYORDER=
